<?xml version="1.0" standalone="no"?>
<!DOCTYPE svg PUBLIC "-//W3C//DTD SVG 20010904//EN"
 "http://www.w3.org/TR/2001/REC-SVG-20010904/DTD/svg10.dtd">
<svg version="1.0" xmlns="http://www.w3.org/2000/svg"
 width="840.000000pt" height="1060.000000pt" viewBox="0 0 840.000000 1060.000000"
 preserveAspectRatio="xMidYMid meet">

<g transform="translate(0.000000,1060.000000) scale(0.100000,-0.100000)"
fill="#000000" stroke="none">
<path d="M851 10189 c-73 -14 -141 -39 -226 -82 -62 -32 -101 -63 -176 -137
-84 -84 -101 -107 -147 -200 -28 -58 -59 -134 -69 -170 -17 -62 -18 -248 -18
-4070 0 -3830 1 -4008 18 -4070 10 -36 41 -112 69 -170 45 -93 61 -115 147
-200 106 -106 192 -158 331 -202 l75 -23 3350 0 3350 0 75 23 c114 36 222 97
300 169 118 109 187 220 237 380 l28 88 0 4000 c0 3789 -1 4003 -18 4064 -46
168 -103 266 -222 386 -97 98 -183 150 -320 197 l-70 23 -3335 1 c-1867 1
-3354 -2 -3379 -7z m6738 -494 c39 -20 78 -69 91 -113 14 -52 14 -8052 0
-8104 -13 -44 -52 -93 -91 -113 -43 -23 -6725 -23 -6768 0 -39 20 -78 69 -91
113 -7 25 -10 1321 -10 4057 1 4286 -2 4063 47 4117 10 12 32 29 48 39 29 18
136 19 3388 19 2929 0 3362 -2 3386 -15z"/>
<path d="M2640 9010 c0 -120 -3 -161 -12 -164 -7 -2 -55 -13 -106 -25 -251
-57 -426 -196 -537 -424 -67 -139 -89 -242 -88 -412 0 -109 5 -157 22 -220 50
-185 169 -350 328 -452 86 -55 235 -121 478 -213 432 -162 491 -211 490 -405
-1 -134 -59 -231 -171 -286 -59 -29 -77 -33 -173 -37 -124 -5 -192 7 -280 48
-116 55 -201 171 -239 327 -9 40 -21 73 -26 73 -14 0 -510 -131 -522 -138 -9
-5 -5 -31 13 -91 83 -290 242 -496 468 -609 69 -34 199 -77 265 -86 25 -4 57
-9 73 -12 l27 -6 0 -209 0 -209 173 2 172 3 5 210 5 209 76 12 c391 60 666
307 745 669 25 118 23 334 -5 440 -36 139 -93 237 -196 341 -129 130 -272 208
-635 344 -318 120 -416 176 -457 267 -22 48 -25 65 -21 137 5 93 27 145 86
204 65 65 122 86 232 87 84 0 102 -3 155 -28 107 -50 202 -165 265 -318 l23
-57 221 90 c121 49 231 94 243 99 l23 8 -26 73 c-68 188 -174 337 -310 434
-110 79 -231 126 -411 160 -23 4 -23 6 -23 164 l0 160 -175 0 -175 0 0 -160z"/>
<path d="M5060 8355 l0 -255 963 2 962 3 3 253 2 252 -965 0 -965 0 0 -255z"/>
<path d="M4530 6445 l0 -245 1230 0 1230 0 0 245 0 245 -1230 0 -1230 0 0
-245z"/>
<path d="M1672 4538 l3 -243 2655 0 2655 0 3 243 2 242 -2660 0 -2660 0 2
-242z"/>
<path d="M1660 2793 c0 -65 3 -182 7 -261 l6 -142 2656 2 2655 3 -2 215 c-2
118 -5 234 -9 258 l-5 42 -2654 0 -2654 0 0 -117z"/>
</g>
</svg>
